<svg width="20" height="20" viewBox="0 0 20 20" fill="none" xmlns="http://www.w3.org/2000/svg">
<path d="M9.99948 2.65774e-07C5.09549 -0.000631143 0.91504 3.55593 0.129878 8.39664C-0.655294 13.2374 2.18666 17.933 6.83945 19.4825C7.34057 19.5727 7.51997 19.265 7.51997 19.0004C7.51997 18.7629 7.51195 18.1335 7.50895 17.2966C4.72774 17.8979 4.14043 15.9556 4.14043 15.9556C3.95733 15.3513 3.56371 14.8324 3.03095 14.4933C2.12894 13.873 3.10011 13.887 3.10011 13.887C3.74221 13.975 4.30735 14.3555 4.63052 14.9173C4.90406 15.4147 5.36491 15.7822 5.91068 15.9382C6.45645 16.0942 7.04191 16.0258 7.53701 15.7481C7.58353 15.241 7.80915 14.7671 8.17341 14.4112C5.95448 14.1596 3.62127 13.3017 3.62127 9.47014C3.60895 8.47912 3.97695 7.52109 4.64956 6.79316C4.34524 5.93055 4.38108 4.98437 4.74979 4.14726C4.74979 4.14726 5.58866 3.87765 7.49792 5.17054C9.13546 4.72155 10.8636 4.72155 12.5011 5.17054C14.4113 3.87665 15.2492 4.14726 15.2492 4.14726C15.6196 4.98398 15.6555 5.93081 15.3494 6.79316C16.0245 7.52102 16.3923 8.48153 16.3757 9.47414C16.3757 13.3157 14.0405 14.1596 11.8135 14.4072C12.2939 14.8984 12.5404 15.5721 12.49 16.2573C12.49 17.5943 12.478 18.6727 12.478 19.0004C12.478 19.268 12.6564 19.5787 13.1666 19.4805C17.8174 17.9284 20.6564 13.2325 19.8695 8.39303C19.0828 3.55358 14.9025 -0.00112224 9.99948 2.65774e-07Z" fill="#F9F9F9"/>
</svg>
