<svg width="20" height="21" viewBox="0 0 20 21" fill="none" xmlns="http://www.w3.org/2000/svg">
<path d="M9.99448 20.0288C7.26261 20.0288 6.94057 20.0144 5.8745 19.9677C5.04315 19.9404 4.22258 19.7714 3.44807 19.468C2.10806 18.9465 1.04846 17.8866 0.527483 16.5463C0.235768 15.769 0.0784229 14.9478 0.0621875 14.1177C-8.2738e-09 13.0538 0 12.7051 0 9.99442C0 7.25484 0.0144364 6.93502 0.0621875 5.8745C0.0787782 5.04555 0.236113 4.22543 0.527483 3.44919C1.04789 2.10719 2.10921 1.04628 3.45141 0.526373C4.22725 0.233436 5.04757 0.0756799 5.87672 0.0599664C6.93724 -1.11696e-07 7.28593 0 9.99448 0C12.7485 0 13.065 0.0144363 14.1144 0.0599664C14.9456 0.0758131 15.7681 0.233547 16.5464 0.526373C17.8882 1.04687 18.9493 2.10758 19.4703 3.44919C19.7669 4.23675 19.925 5.06968 19.9378 5.91114C20 6.97499 20 7.32259 20 10.0322C20 12.7418 19.9845 13.0971 19.9378 14.1488C19.9213 14.9796 19.7635 15.8016 19.4714 16.5796C18.949 17.9208 17.8878 18.9812 16.5464 19.5024C15.7693 19.7936 14.9485 19.951 14.1188 19.9677C13.0583 20.0288 12.7107 20.0288 9.99448 20.0288ZM9.95672 1.75791C7.2404 1.75791 6.95834 1.77123 5.89782 1.81898C5.26483 1.82738 4.63794 1.94419 4.04441 2.16435C3.16796 2.49973 2.47443 3.19044 2.13547 4.06551C1.91362 4.66551 1.79679 5.29924 1.79011 5.93891C1.73126 7.01497 1.73126 7.29704 1.73126 9.99442C1.73126 12.6596 1.74125 12.9828 1.79011 14.0522C1.80006 14.6854 1.91682 15.3123 2.13547 15.9067C2.47493 16.7812 3.16834 17.4714 4.04441 17.8067C4.63754 18.0284 5.26467 18.1452 5.89782 18.1521C6.97277 18.2143 7.25595 18.2143 9.95672 18.2143C12.6808 18.2143 12.9628 18.2009 14.0145 18.1521C14.6479 18.1444 15.2752 18.0276 15.869 17.8067C16.74 17.4685 17.4291 16.7799 17.7679 15.9089C17.9893 15.3085 18.1061 14.6744 18.1133 14.0344H18.1255C18.1732 12.9728 18.1732 12.6896 18.1732 9.97665C18.1732 7.26373 18.161 6.97833 18.1133 5.91781C18.1033 5.28534 17.9865 4.65909 17.7679 4.06551C17.4299 3.19331 16.7407 2.50338 15.869 2.16435C15.2753 1.94308 14.6479 1.82624 14.0145 1.81898C12.9406 1.75791 12.6597 1.75791 9.95672 1.75791ZM9.99448 15.1238C7.91775 15.1251 6.04487 13.8753 5.24915 11.9572C4.45341 10.0391 4.89161 7.83041 6.35937 6.36141C7.82713 4.89238 10.0353 4.45227 11.9542 5.24634C13.873 6.0404 15.1244 7.91225 15.1249 9.98887C15.1218 12.8218 12.8273 15.1182 9.99448 15.1238ZM9.99448 6.65517C8.1545 6.65517 6.66295 8.14678 6.66295 9.98665C6.66295 11.8266 8.1545 13.3181 9.99448 13.3181C11.8343 13.3181 13.3259 11.8266 13.3259 9.98665C13.3216 8.14845 11.8326 6.65945 9.99448 6.65517ZM15.3248 5.8634C14.6645 5.86095 14.1309 5.32435 14.1322 4.66407C14.1334 4.0038 14.669 3.46919 15.3293 3.46919C15.9895 3.46919 16.5251 4.00379 16.5264 4.66406C16.5266 4.98263 16.4 5.28819 16.1746 5.51323C15.9492 5.73828 15.6433 5.86428 15.3248 5.8634Z" fill="#F9F9F9"/>
</svg>
