<svg width="10" height="10" viewBox="0 0 10 10" fill="none" xmlns="http://www.w3.org/2000/svg">
<path d="M1.18 5.06311L1.18149 5.07022C1.39387 6.0785 2.07341 6.94417 3.03513 7.38133L5 8.27444V7.22222H6.11111C7.64522 7.22222 8.88889 5.97856 8.88889 4.44444V3.88889C8.88889 2.35477 7.64522 1.11111 6.11111 1.11111H3.88889C2.35477 1.11111 1.11111 2.35477 1.11111 3.88889V4.44444C1.11111 4.65578 1.13451 4.86028 1.17842 5.05606L1.18 5.06311ZM6.11111 10L2.57534 8.39283C1.28771 7.80756 0.378483 6.64872 0.0942389 5.29922C0.03255 5.02417 0 4.73811 0 4.44444V3.88889C0 1.74112 1.74112 0 3.88889 0H6.11111C8.25889 0 10 1.74112 10 3.88889V4.44444C10 6.59222 8.25889 8.33333 6.11111 8.33333V10Z" fill="#F9F9F9"/>
</svg>
