<svg width="58" height="57" viewBox="0 0 58 57" fill="none" xmlns="http://www.w3.org/2000/svg">
<path d="M28.9853 0.809998C15.0466 0.808204 3.16438 10.9171 0.932694 24.676C-1.29902 38.4352 6.77874 51.7815 20.0035 56.1856C21.4278 56.442 21.9378 55.5674 21.9378 54.8154C21.9378 54.1402 21.915 52.3513 21.9064 49.9726C14.0013 51.6818 12.332 46.1611 12.332 46.1611C11.8116 44.4433 10.6928 42.9686 9.1785 42.0048C6.61468 40.2415 9.37506 40.2814 9.37506 40.2814C11.2001 40.5315 12.8064 41.6131 13.725 43.2098C14.5025 44.6236 15.8124 45.6682 17.3636 46.1115C18.9149 46.555 20.579 46.3605 21.9862 45.5714C22.1184 44.13 22.7597 42.7828 23.795 41.7712C17.4881 41.0562 10.8564 38.6178 10.8564 27.7272C10.8214 24.9104 11.8673 22.1874 13.7791 20.1184C12.9141 17.6666 13.016 14.9772 14.064 12.5979C14.064 12.5979 16.4483 11.8316 21.8751 15.5064C26.5295 14.2302 31.4415 14.2302 36.0957 15.5064C41.5253 11.8287 43.9068 12.5979 43.9068 12.5979C44.9596 14.9761 45.0616 17.6673 44.1916 20.1184C46.1105 22.1872 47.1557 24.9173 47.1087 27.7386C47.1087 38.6576 40.4712 41.0562 34.1415 41.7599C35.5068 43.156 36.2073 45.0709 36.0643 47.0185C36.0643 50.8187 36.0301 53.8839 36.0301 54.8154C36.0301 55.576 36.5372 56.4591 37.9872 56.1799C51.2065 51.7684 59.2757 38.4212 57.0392 24.6657C54.803 10.9104 42.9214 0.806808 28.9853 0.809998Z" fill="black"/>
</svg>
