<svg width="20" height="20" viewBox="0 0 20 20" fill="none" xmlns="http://www.w3.org/2000/svg">
<path d="M11.1111 20H6.66666V6.66666H11.1111V8.88888C12.0584 7.6836 13.4951 6.96507 15.0278 6.92999C17.784 6.94529 20.008 9.18821 20 11.9444V20H15.5555V12.5C15.3778 11.2584 14.3131 10.3373 13.0589 10.34C12.5103 10.3573 11.9924 10.5975 11.6249 11.0051C11.2573 11.4128 11.0718 11.9525 11.1111 12.5V20ZM4.44444 20H0V6.66666H4.44444V20ZM2.22222 4.44444C0.994921 4.44444 0 3.44952 0 2.22222C0 0.994921 0.994921 0 2.22222 0C3.44952 0 4.44444 0.994921 4.44444 2.22222C4.44444 2.81159 4.21032 3.37682 3.79356 3.79356C3.37682 4.21032 2.81159 4.44444 2.22222 4.44444Z" fill="#F9F9F9"/>
</svg>
